<svg fill="#fff" xmlns="http://www.w3.org/2000/svg" xmlns:xlink="http://www.w3.org/1999/xlink" version="1.1" x="0px" y="0px" viewBox="0 0 60 75" style="enable-background:new 0 0 60 60;" xml:space="preserve"><path d="M6.3091431,33.7974243c5.3137207-2.2998657,11.5903931-1.3244629,15.9744263,2.5081787l6.3023682-6.3023682  L12.34198,13.7592773C7.3446655,19.1849976,5.1364136,26.5250244,6.3091431,33.7974243z"/><path d="M36.3023682,22.2868042c-3.8336792-4.385498-4.8088989-10.6645508-2.5058594-15.9801636  c-1.2826538-0.2067261-2.5675659-0.3087769-3.8433838-0.3087769c-5.9626465,0-11.7323608,2.225647-16.2017822,6.3426514  L30,28.5891724L36.3023682,22.2868042z"/><path d="M46.2409058,12.3482666c-0.1685181-0.1550903-0.3306885-0.3184814-0.5030518-0.4683838  c-0.1403198-0.1220093-0.2884521-0.2330322-0.4312744-0.3516235c-0.288269-0.2392578-0.5759277-0.479248-0.8740845-0.7040405  c-0.1760864-0.1327515-0.3594971-0.2540894-0.5389404-0.3817139c-0.2748413-0.1955566-0.548584-0.3927612-0.8309326-0.5761719  c-0.1968994-0.1279297-0.4000854-0.244873-0.6004639-0.3668213c-0.2745972-0.1670532-0.5485229-0.3352661-0.8294067-0.4909668  c-0.211792-0.1174316-0.428772-0.2247925-0.644043-0.3356323c-0.2788696-0.1435547-0.5575562-0.2872314-0.8419189-0.4196777  c-0.2228394-0.1038208-0.4498291-0.1988525-0.6759033-0.2957153c-0.2850952-0.1221924-0.5706787-0.2431641-0.8606567-0.354187  c-0.2324829-0.0889893-0.4680176-0.1704102-0.7034302-0.2521362c-0.2909546-0.1010742-0.5829468-0.1995239-0.8782349-0.2893066  c-0.2407837-0.0732422-0.4837646-0.1402588-0.7272949-0.2059326c-0.1674194-0.045166-0.3365479-0.0852661-0.505188-0.1268311  c-2.1920166,4.6488647-1.4255371,10.2398682,1.9190674,14.1448975L46.2409058,12.3482666z"/><path d="M53.2739258,24.2072144c-0.0420532-0.1703491-0.0823975-0.3412476-0.1281128-0.510437  c-0.0647583-0.2398071-0.1306763-0.4790649-0.2028198-0.7162476c-0.0910645-0.2994995-0.1907959-0.5957642-0.293396-0.8908691  c-0.0805054-0.2315674-0.1605225-0.4633789-0.2480469-0.6920776c-0.1124878-0.2939453-0.2350464-0.5834961-0.3590088-0.8723755  c-0.09552-0.2225342-0.1889038-0.4460449-0.2910767-0.6654663c-0.1339111-0.2877197-0.2792358-0.5698242-0.4246216-0.8518677  c-0.109436-0.2122803-0.215332-0.4263306-0.3311157-0.6353149c-0.1568604-0.2830811-0.3262939-0.5591431-0.4946899-0.8358154  c-0.1209106-0.1986694-0.2368774-0.4001465-0.3636475-0.5953979c-0.1843262-0.2837524-0.3825073-0.5588379-0.5790405-0.835022  c-0.12677-0.1781616-0.2472534-0.3602905-0.3790283-0.5350952c-0.2252197-0.2988281-0.4658203-0.5871582-0.7055664-0.8760376  c-0.1181641-0.142395-0.2287598-0.289978-0.3504028-0.4298096c-0.1499023-0.1724243-0.3132324-0.3345337-0.4683838-0.5030518  l-8.5256958,8.5256958C43.0352173,25.6331177,48.6268921,26.4006348,53.2739258,24.2072144z"/><path d="M14.6934204,48.4782104c0.288269,0.2392578,0.5759277,0.479248,0.8740845,0.7040405  c0.1760864,0.1327515,0.3594971,0.2540894,0.5389404,0.3817139c0.2748413,0.1955566,0.548584,0.3927612,0.8309326,0.5761719  c0.1968994,0.1279297,0.4000854,0.244873,0.6004639,0.3668213c0.2745972,0.1670532,0.5485229,0.3352661,0.8294067,0.4909668  c0.211792,0.1174316,0.428772,0.2247925,0.644043,0.3356323c0.2788696,0.1435547,0.5575562,0.2872314,0.8419189,0.4196777  c0.2228394,0.1038208,0.4498291,0.1988525,0.6759033,0.2957153c0.2850952,0.1221924,0.5706787,0.2431641,0.8606567,0.354187  c0.2324829,0.0889893,0.4680176,0.1704102,0.7034302,0.2521362c0.2909546,0.1010742,0.5829468,0.1995239,0.8782349,0.2893066  c0.2407837,0.0732422,0.4837646,0.1402588,0.7272949,0.2059326c0.1674194,0.045166,0.3365479,0.0852661,0.505188,0.1268311  c2.1920166-4.6488647,1.4255371-10.2398682-1.9190674-14.1448975l-8.5257568,8.5257568  c0.1685181,0.1550903,0.3306885,0.3184814,0.5030518,0.4683838C14.4024658,48.2485962,14.5505981,48.3596191,14.6934204,48.4782104z  "/><path d="M7.0570068,37.0259399c0.0910645,0.2994995,0.1907959,0.5957642,0.293396,0.8908691  c0.0805054,0.2315674,0.1605225,0.4633789,0.2480469,0.6920776c0.1124878,0.2939453,0.2350464,0.5834961,0.3590088,0.8723755  c0.09552,0.2225342,0.1889038,0.4460449,0.2910767,0.6654663c0.1339111,0.2877197,0.2792358,0.5698242,0.4246216,0.8518677  c0.109436,0.2122803,0.215332,0.4263306,0.3311157,0.6353149c0.1568604,0.2830811,0.3262939,0.5591431,0.4946899,0.8358154  c0.1209106,0.1986694,0.2368774,0.4001465,0.3636475,0.5953979c0.1843262,0.2837524,0.3825073,0.5588379,0.5790405,0.835022  c0.12677,0.1781616,0.2472534,0.3602905,0.3790283,0.5350952c0.2252197,0.2988281,0.4658203,0.5871582,0.7055664,0.8760376  c0.1181641,0.142395,0.2287598,0.289978,0.3504028,0.4298096c0.1499023,0.1724243,0.3132324,0.3345337,0.4683838,0.5030518  l8.5256958-8.5256958c-3.9054565-3.3447876-9.4958496-4.1126099-14.1446533-1.9191895  c0.0420532,0.1703491,0.0823975,0.3412476,0.1281128,0.510437C6.9189453,36.5494995,6.9848633,36.7887573,7.0570068,37.0259399z"/><path d="M53.6903076,26.2061157c-1.9106445,0.8269043-3.9442749,1.2375488-5.9720459,1.2375488  c-3.6114502,0-7.1875-1.2957153-9.9951172-3.7495117l-6.309082,6.309082L47.65802,46.2471924  C52.6560059,40.8207397,54.8641968,33.4794312,53.6903076,26.2061157z"/><path  d="M46.2439575,47.6612549L30,31.4172974l-6.3023682,6.3023682c3.8323364,4.3839722,4.8080444,10.6600342,2.5081177,15.9744263  C33.4801636,54.8664551,40.8188477,52.65802,46.2439575,47.6612549z" /></svg>