<svg fill="#fff" xmlns="http://www.w3.org/2000/svg" xmlns:xlink="http://www.w3.org/1999/xlink" version="1.1" x="0px" y="0px" viewBox="0 0 22 39.9225" style="enable-background:new 0 0 22 31.938;" xml:space="preserve"><g><path d="M19.5,27.938c-1.381,0-2.5,0.447-2.5,1v2c0,0.553,1.119,1,2.5,1s2.5-0.447,2.5-1v-2C22,28.385,20.881,27.938,19.5,27.938z"/><polygon points="20.37,3.938 17.369,3.938 17.034,4.938 20.035,4.938  "/><path d="M21.061,1.874c0.145-0.434,0.072-0.911-0.194-1.282C20.599,0.22,20.169,0,19.711,0c-0.611,0-1.154,0.391-1.349,0.971   l-0.658,1.967h3L21.061,1.874z"/><path d="M16.03,7.938l-5.746,17.164l-6.436-1.98c-0.902-0.277-1.883-0.11-2.642,0.45C0.448,24.133,0,25.021,0,25.964   c0,1.643,1.331,2.974,2.974,2.974H9h2.184h0.001c0.487,0,0.92-0.312,1.074-0.773L19.03,7.938H16.03z"/><polygon points="19.7,5.938 16.699,5.938 16.365,6.938 19.365,6.938  "/></g></svg>