<svg fill="#fff" xmlns="http://www.w3.org/2000/svg" viewBox="0 0 64 80" x="0px" y="0px"><title>1</title><g data-name="Layer 29"><path d="M22,51.24,17.76,47l-3.85,3.85a3,3,0,0,0,4.24,4.24Z"/><path d="M39.92,47.17,21.83,29.08a16.53,16.53,0,0,0,2.44,10.31s0,.05,0,.08a1,1,0,0,1-.12,1.08s0,.05,0,.07l-5,5,4.24,4.24,5-5,.07,0,.17-.11.17-.08.19,0h.19l.18,0,.19.07.08,0A16.53,16.53,0,0,0,39.92,47.17Z"/><path d="M50.11,18.89a16.61,16.61,0,0,0-27.87,7.77L42.34,46.75a16.61,16.61,0,0,0,7.77-27.86Z"/><circle cx="16.45" cy="12.55" r="7"/></g></svg>