<svg  fill="#fff" xmlns="http://www.w3.org/2000/svg" xmlns:xlink="http://www.w3.org/1999/xlink" version="1.1" x="0px" y="0px" viewBox="0 0 512 640" enable-background="new 0 0 512 512" xml:space="preserve"><g><path  d="M506.8,16.6C506.2,10.3,501,5,494.7,4.5c-80.9-7.2-166.1,3.6-167.3,3.8C234,22.4,160.5,55.7,109,107.1   c-51.5,51.5-84.8,124.9-98.9,218.3C-3.4,415.1,6,489.6,6.4,492.8c0.8,6.3,5.8,11.4,12.2,12.2c92.6,11.2,135.4,1.1,167.3-3.8   c93.4-14.1,166.9-47.4,218.3-98.9c51.5-51.5,84.8-124.9,98.9-218.3C503.1,183.9,513.8,88.4,506.8,16.6z M33.2,478.1   c-1.7-20.2-4.3-66,1.2-120.2l119,119C131.5,479.1,87.2,484.3,33.2,478.1z M384.2,382.3c-45.9,45.9-111.7,76.1-195.6,89.8   L39.1,322.7c13.8-84,44-149.8,89.9-195.6C174.8,81.2,240.6,51,324.6,37.2l149.5,149.5C460.3,270.7,430.1,336.5,384.2,382.3z    M478.8,151.5l-119-119c21.9-2.3,58.8-7,120.2-1.2C481.7,51.5,484.3,97.2,478.8,151.5z"/><path  d="M311.7,164.6c-5.5-5.5-14.4-5.5-19.9,0c-5.5,5.5-5.5,14.4,0,19.9l7.5,7.5l-21.8,21.8l-7.5-7.5c-5.5-5.5-14.4-5.5-19.9,0   c-5.5,5.5-5.5,14.4,0,19.9l7.5,7.5l-21.8,21.8l-7.5-7.5c-5.5-5.5-14.4-5.5-19.9,0c-5.5,5.5-5.5,14.4,0,19.9l7.5,7.5L194,297.4   l-7.5-7.5c-5.5-5.5-14.4-5.5-19.9,0c-5.5,5.5-5.5,14.4,0,19.9l7.5,7.5l-17.9,17.9c-5.5,5.5-5.5,14.4,0,19.9   c5.7,5.7,14.6,5.3,19.9,0l17.9-17.9l7.5,7.5c3.8,3.8,11.8,8.1,19.9,0c5.5-5.5,5.5-14.4,0-19.9l-7.5-7.5l21.8-21.8l7.5,7.5   c3.8,3.8,11.8,8.1,19.9,0c5.5-5.5,5.5-14.4,0-19.9l-7.5-7.5l21.8-21.8l7.5,7.5c3.8,3.8,11.8,8.1,19.9,0c5.5-5.5,5.5-14.4,0-19.9   l-7.5-7.5l21.8-21.8l7.5,7.5c3.8,3.8,11.8,8.1,19.9,0c5.5-5.5,5.5-14.4,0-19.9l-7.5-7.5l17.9-17.9c5.5-5.5,5.5-14.4,0-19.9   c-5.5-5.5-14.4-5.5-19.9,0l-17.9,17.9L311.7,164.6z"/></g></svg>