<svg fill="#fff" xmlns="http://www.w3.org/2000/svg" xmlns:xlink="http://www.w3.org/1999/xlink" version="1.1" x="0px" y="0px" viewBox="0 0 58 72.5" style="enable-background:new 0 0 58 58;" xml:space="preserve"><path d="M29.01,5C15.77,5,5,15.77,5,29.01C5,42.24,15.77,53,29.01,53C42.24,53,53,42.24,53,29.01C53,15.77,42.24,5,29.01,5z   M23.42,6.85c1.79-0.45,3.66-0.72,5.59-0.72c10.06,0,18.61,6.55,21.65,15.61c-7.78-5.3-16.75-7.23-26.67-5.75  C23.37,12.99,23.16,9.94,23.42,6.85z M13.15,12.56c2.54-2.45,5.64-4.33,9.1-5.41c-0.44,11.85,3.48,17.92,6.11,21.88  c-1.95,3.94-4.39,7.29-7.27,10.06C14.77,31.11,12.09,22.21,13.15,12.56z M6.13,29.01c0-5.81,2.19-11.1,5.77-15.14  c-0.7,9.4,2.11,18.13,8.36,25.99c-2.28,2.05-4.82,3.75-7.63,5.07C8.62,40.81,6.13,35.2,6.13,29.01z M22.71,50.97  c-3.49-1-6.63-2.81-9.22-5.21c8.25-3.83,13.78-12.01,15.87-16.2c4.39-0.28,8.51,0.15,12.35,1.27c-3.75,9.48-10.13,16.25-18.97,20.13  C22.73,50.95,22.72,50.96,22.71,50.97z M29.01,51.87c-1.57,0-3.1-0.16-4.58-0.46c8.51-4.09,14.68-10.89,18.36-20.25  c2.91,0.95,5.64,2.3,8.19,4.06C48.27,44.81,39.46,51.87,29.01,51.87z M29.31,28.42c-2.43-3.66-4.11-7.44-5.06-11.32  c10.05-1.48,19.08,0.64,26.92,6.36c0.45,1.78,0.71,3.63,0.71,5.55c0,1.74-0.21,3.42-0.58,5.05C43.01,28.44,33.99,28.13,29.31,28.42z  "/></svg>